<?xml version="1.0" encoding="UTF-8" standalone="no"?>
<!DOCTYPE svg PUBLIC "-//W3C//DTD SVG 1.1//EN" "http://www.w3.org/Graphics/SVG/1.1/DTD/svg11.dtd">
<svg width="100%" height="100%" viewBox="0 0 1098 1098" version="1.1" xmlns="http://www.w3.org/2000/svg" xmlns:xlink="http://www.w3.org/1999/xlink" xml:space="preserve" xmlns:serif="http://www.serif.com/" style="fill-rule:evenodd;clip-rule:evenodd;stroke-linecap:square;stroke-linejoin:round;stroke-miterlimit:1.5;">
    <g transform="matrix(1,0,0,1,-641.721,-208.516)">
        <g transform="matrix(1.02597,0,0,1.02597,92.4939,-118.974)">
            <rect x="535.325" y="319.201" width="1070.09" height="1070.09" style="fill:rgb(14,35,63);"/>
        </g>
        <g transform="matrix(1.02597,0,0,1.02597,-30.9189,-19.6695)">
            <g transform="matrix(1,0,0,1,500.559,225.486)">
                <path d="M372.315,663.012C341.865,663.012 318.091,653.399 300.993,634.172C283.894,614.944 275.345,588.197 275.345,553.931C275.345,504.112 281.453,461.497 293.67,426.087C305.886,390.676 323.473,363.524 346.429,344.631C369.386,325.737 396.916,316.291 429.021,316.291C459.403,316.291 483.13,325.668 500.2,344.421C517.27,363.175 525.805,389.288 525.805,422.76C525.805,473.029 519.723,516.1 507.56,551.972C495.396,587.844 477.874,615.318 454.993,634.396C432.112,653.474 404.553,663.012 372.315,663.012ZM375.799,634.199C400.222,634.199 421.144,625.98 438.564,609.54C455.984,593.101 469.312,569.443 478.548,538.565C487.784,507.688 492.402,470.538 492.402,427.116C492.402,401.335 486.636,381.221 475.105,366.774C463.573,352.327 447.464,345.104 426.776,345.104C401.731,345.104 380.271,353.231 362.396,369.486C344.521,385.741 330.847,409.092 321.375,439.539C311.903,469.986 307.167,506.665 307.167,549.575C307.167,576.145 313.217,596.892 325.316,611.815C337.415,626.738 354.243,634.199 375.799,634.199Z" style="fill:white;fill-rule:nonzero;"/>
            </g>
            <g transform="matrix(0.951733,0,0,0.951733,557.062,246.057)">
                <path d="M522.799,771.066L521.452,741.459L540.529,739.559C560.161,737.555 576.705,732.675 590.162,724.917C603.62,717.159 614.214,705.575 621.946,690.165C629.677,674.755 634.626,654.727 636.79,630.081L656.264,434.241C659.113,403.262 666.382,377.653 678.071,357.414C689.759,337.175 705.855,322.095 726.357,312.174C746.86,302.253 771.546,297.292 800.414,297.292C814.082,297.292 827.011,298.875 839.202,302.042L829.068,330.224C821.891,328.958 815.546,328.087 810.03,327.612C804.515,327.137 799.119,326.899 793.843,326.899C762.602,326.899 738.128,335.514 720.422,352.744C702.716,369.974 692.122,396.348 688.639,431.866L667.343,635.305C664.494,664.911 658.082,689.108 648.108,707.896C638.133,726.684 624.359,740.933 606.786,750.643C589.212,760.352 567.522,766.527 541.716,769.166L522.799,771.066ZM561.427,498.676L566.574,469.703L791.705,469.703L786.559,498.676L561.427,498.676Z" style="fill:white;fill-rule:nonzero;"/>
            </g>
            <g transform="matrix(1,0,0,1,481.233,223.274)">
                <path d="M807.776,771.066L806.429,741.459L825.506,739.559C845.137,737.555 861.682,732.675 875.139,724.917C888.596,717.159 899.191,705.575 906.922,690.165C914.654,674.755 919.602,654.727 921.767,630.081L941.24,434.241C944.09,403.262 951.359,377.653 963.048,357.414C974.736,337.175 990.832,322.095 1011.33,312.174C1031.84,302.253 1056.52,297.292 1085.39,297.292C1099.06,297.292 1111.99,298.875 1124.18,302.042L1114.05,330.224C1106.87,328.958 1100.52,328.087 1095.01,327.612C1089.49,327.137 1084.1,326.899 1078.82,326.899C1047.58,326.899 1023.11,335.514 1005.4,352.744C987.693,369.974 977.099,396.348 973.616,431.866L952.32,635.305C949.47,664.911 943.058,689.108 933.084,707.896C923.11,726.684 909.336,740.933 891.763,750.643C874.189,760.352 852.499,766.527 826.693,769.166L807.776,771.066ZM846.404,498.676L851.551,469.703L1076.68,469.703L1071.54,498.676L846.404,498.676Z" style="fill:white;fill-rule:nonzero;"/>
            </g>
            <g transform="matrix(0.856477,0,0,1.64553,147.231,-454.313)">
                <rect x="1006.57" y="697.104" width="606.376" height="18.033" style="fill:white;"/>
            </g>
            <g transform="matrix(1,0,0,1.13132,0,-130.58)">
                <path d="M901.134,707.628L901.134,994.34" style="fill:none;"/>
                <g transform="matrix(0.974689,-0,-0,0.861548,655.614,312.015)">
                    <path d="M295.645,502.938C295.645,478.792 276.041,459.188 251.895,459.188C227.749,459.188 208.145,478.792 208.145,502.938C208.145,527.084 227.749,546.688 251.895,546.688C276.041,546.688 295.645,527.084 295.645,502.938Z" style="fill:white;"/>
                    <path d="M251.895,529.188L251.895,791.975" style="fill:none;stroke:white;stroke-width:29.17px;"/>
                </g>
            </g>
            <g transform="matrix(2.98588e-16,-1,0.393687,-9.57759e-17,566.112,1895.47)">
                <path d="M901.134,707.628L901.134,994.34" style="fill:none;stroke:white;stroke-width:37.41px;"/>
            </g>
        </g>
    </g>
</svg>
